<svg id="Layer_1" height="512" viewBox="0 0 66 66" width="512" xmlns="http://www.w3.org/2000/svg"><g><g><path d="m33 65c-17.7 0-32-14.3-32-32s14.3-32 32-32 32 14.3 32 32-14.3 32-32 32" fill="#abb734"/></g><g><path d="m37.7 46.4v3.6c0 1.7-1.4 3-3 3h-17.6v-5.6c0-.9-.8-1.7-1.7-1.7h-5.6v-30.7c0-1.7 1.4-3 3-3h21.9c1.7 0 3 1.4 3 3v4.9" fill="#e5e5e5"/></g><g><path d="m34.7 53.8h-17.6c-.4 0-.8-.3-.8-.8v-5.6c0-.5-.5-1-1-1h-5.5c-.4 0-.8-.3-.8-.8v-30.6c0-2.1 1.7-3.8 3.8-3.8h21.9c2.1 0 3.8 1.7 3.8 3.8v4.9c0 .4-.3.8-.8.8s-.7-.4-.7-.8v-4.9c0-1.2-1-2.3-2.3-2.3h-21.9c-1.2 0-2.3 1-2.3 2.3v30h4.9c1.3 0 2.5 1.1 2.5 2.5v4.8h16.9c1.2 0 2.3-1 2.3-2.3v-3.6c0-.4.3-.8.8-.8s.8.3.8.8v3.6c-.2 2.1-1.9 3.8-4 3.8z" fill="#682f2a"/></g><g><path d="m17.1 53.1-7.3-7.3h5.6c.9 0 1.7.8 1.7 1.7z" fill="#cccaca"/></g><g><path d="m17.1 53.8c-.2 0-.4-.1-.5-.2l-7.3-7.3c-.2-.2-.3-.5-.2-.8s.4-.5.7-.5h5.6c1.3 0 2.5 1.1 2.5 2.5v5.6c0 .3-.2.6-.5.7-.1 0-.2 0-.3 0zm-5.5-7.3 4.7 4.7v-3.8c0-.5-.5-1-1-1h-3.7z" fill="#682f2a"/></g><g><path d="m45.3 24.4c4.6 5.2 4.4 13.2-.6 18.1-5.2 5.2-13.6 5.2-18.7 0-5.2-5.2-5.2-13.6 0-18.7 4-4 9.8-4.9 14.6-2.8" fill="#616b77"/></g><g><path d="m35.3 47.2c-3.8 0-7.3-1.5-9.9-4.1-2.7-2.7-4.1-6.2-4.1-10 0-3.7 1.5-7.2 4.1-9.8 4.1-4.1 10.2-5.3 15.4-3 .4.2.6.6.4 1s-.6.6-1 .4c-4.7-2.1-10.1-1-13.8 2.6-2.4 2.3-3.7 5.4-3.7 8.7 0 3.4 1.3 6.5 3.7 8.9 2.3 2.4 5.4 3.7 8.7 3.7h.1c3.3 0 6.5-1.3 8.9-3.7 4.7-4.6 5-12.1.6-17.1-.3-.3-.2-.8.1-1.1s.8-.2 1.1.1c4.9 5.6 4.6 14-.6 19.1-2.7 2.8-6.2 4.3-10 4.3z" fill="#682f2a"/></g><g><path d="m43.4 28.3c.8 1.4 1.3 3.1 1.3 4.8 0 5.2-4.2 9.4-9.5 9.4-5.2 0-9.4-4.2-9.4-9.4s4.2-9.4 9.5-9.4c1.8 0 3.4.5 4.8 1.3" fill="#6eb0ff"/></g><g><path d="m35.2 43.3c-5.6 0-10.2-4.6-10.2-10.2s4.6-10.1 10.3-10.1c1.8 0 3.5.5 5.2 1.4.4.2.5.7.3 1-.2.4-.7.5-1 .3-1.4-.8-2.9-1.2-4.4-1.2-4.8 0-8.8 3.9-8.8 8.6s3.9 8.7 8.7 8.7 8.8-3.9 8.8-8.7c0-1.5-.4-3.1-1.2-4.4-.2-.4-.1-.8.3-1s.8-.1 1 .3c.9 1.6 1.4 3.4 1.4 5.2-.1 5.5-4.7 10.1-10.4 10.1z" fill="#682f2a"/></g><g><path d="m45.9 41.1 2.5 2.5-2.6 2.6-2.5-2.5c.5-.4 1-.8 1.4-1.2s.8-.9 1.2-1.4" fill="#425060"/></g><g><path d="m45.8 47c-.2 0-.4-.1-.5-.2l-2.5-2.5c-.2-.2-.2-.4-.2-.6s.1-.4.3-.5c.5-.4 1-.8 1.3-1.1.4-.4.8-.9 1.1-1.3.1-.2.3-.3.5-.3s.4.1.6.2l2.5 2.5c.3.3.3.8 0 1.1l-2.6 2.6c-.1 0-.3.1-.5.1zm-1.4-3.2 1.4 1.4 1.5-1.5-1.3-1.5c-.2.3-.5.6-.7.8-.3.3-.6.5-.9.8z" fill="#682f2a"/></g><g><path d="m55.5 52.7-.6.6c-1 1-2.6 1-3.7 0l-5.5-5.5c-.4-.4-.4-1.1 0-1.6l2.7-2.7c.4-.4 1.1-.4 1.6 0l5.5 5.5c1 1 1 2.7 0 3.7" fill="#ffb95c"/></g><g><path d="m53.1 54.8c-.9 0-1.7-.3-2.4-.9l-5.5-5.5c-.7-.7-.7-1.8-.1-2.6l2.8-2.8c.6-.7 1.8-.7 2.6-.1l5.6 5.6c1.3 1.3 1.3 3.5 0 4.8l-.6.6c-.7.6-1.5.9-2.4.9zm-3.9-10.8c-.1 0-.2 0-.2.1l-2.7 2.7c-.1.2-.1.4 0 .5l5.5 5.5c.7.7 1.9.7 2.6 0l.6-.6c.7-.7.7-1.9 0-2.6l-5.5-5.6c-.1 0-.2 0-.3 0z" fill="#682f2a"/></g><g><path d="m32.7 33.3-3 7.3c-1.3-1-2.3-2.3-3-3.8l3.8-9.3z" fill="#fa4968"/></g><g><path d="m29.7 41.3c-.2 0-.3-.1-.5-.2-1.4-1.1-2.5-2.4-3.2-4.1-.1-.2-.1-.4 0-.6l3.8-9.3c.1-.3.4-.5.7-.5s.6.2.7.5l2.2 5.8c.1.2.1.4 0 .6l-3 7.3c-.1.2-.3.4-.5.4-.1.1-.1.1-.2.1zm-2.2-4.5c.5 1 1.1 1.9 1.9 2.6l2.5-6.1-1.4-3.7z" fill="#682f2a"/></g><g><path d="m37.1 33.1-2.3 6-4.3-11.5h4.5z" fill="#ed2f58"/></g><g><path d="m34.8 39.8c-.3 0-.6-.2-.7-.5l-4.3-11.5c-.1-.2-.1-.5.1-.7.1-.2.4-.3.6-.3h4.5c.3 0 .6.2.7.5l2.1 5.5c.1.2.1.4 0 .5l-2.3 6c-.1.4-.4.5-.7.5zm-3.2-11.4 3.2 8.6 1.5-3.9-1.8-4.7z" fill="#682f2a"/></g><g><path d="m34.8 39.1h4.6l5.6-14.8 1.8.6-1.1-8.8-6.4 6.1 1.7.6z" fill="#fa4968"/></g><g><path d="m39.4 39.8h-4.6c-.2 0-.5-.1-.6-.3s-.2-.5-.1-.7l5.9-15.5-1-.3c-.2-.1-.4-.3-.5-.6s0-.5.2-.7l6.4-6.1c.2-.2.5-.3.8-.2s.5.3.5.6l1.1 8.6v.3c0 .4-.3.8-.8.8-.1 0-.2 0-.2 0l-1.1-.4-5.3 14.1c-.1.3-.4.4-.7.4zm-3.5-1.5h3l5.4-14.3c.1-.4.6-.6.9-.4l.7.2-.8-6.1-4.4 4.2.5.2c.2.1.3.2.4.4s.1.4 0 .6z" fill="#682f2a"/></g><g><path d="m29.5 16.4h-15.8c-.4 0-.8-.3-.8-.8s.3-.8.8-.8h15.8c.4 0 .8.3.8.8s-.4.8-.8.8z" fill="#682f2a"/></g><g><path d="m25.3 19h-11.6c-.4 0-.8-.3-.8-.8s.3-.8.8-.8h11.6c.4 0 .8.3.8.8s-.4.8-.8.8z" fill="#682f2a"/></g><g><path d="m13.7 21.9h4v4h-4z" fill="#fa4968"/></g><g><path d="m17.7 26.6h-4c-.4 0-.8-.3-.8-.8v-4c0-.4.3-.8.8-.8h4c.4 0 .8.3.8.8v4c0 .5-.4.8-.8.8zm-3.2-1.5h2.5v-2.5h-2.5z" fill="#682f2a"/></g><g><path d="m13.7 29.8h4v4h-4z" fill="#abb734"/></g><g><path d="m17.7 34.5h-4c-.4 0-.8-.3-.8-.8v-4c0-.4.3-.8.8-.8h4c.4 0 .8.3.8.8v4c0 .5-.4.8-.8.8zm-3.2-1.5h2.5v-2.5h-2.5z" fill="#682f2a"/></g><g><path d="m13.7 37.8h4v4h-4z" fill="#6cd8d5"/></g><g><path d="m17.7 42.5h-4c-.4 0-.8-.3-.8-.8v-4c0-.4.3-.8.8-.8h4c.4 0 .8.3.8.8v4c0 .5-.4.8-.8.8zm-3.2-1.5h2.5v-2.5h-2.5z" fill="#682f2a"/></g></g></svg>